<svg xmlns="http://www.w3.org/2000/svg" width="500" height="500" viewBox="0 0 500 500"><g transform="translate(171.06726725314718,133.80281690140845)translate(78.68212565603208,116.15140845070424)rotate(0)translate(-78.68212565603208,-116.15140845070424) scale(2.323028169014085,2.323028169014085)" opacity="1"><defs class="defs"/><path transform="translate(-16.129,0)" d="M50,0c-18.706,0 -33.871,15.165 -33.871,33.87c0,0.401 0.012,0.809 0.03,1.221c0.127,3.558 0.798,6.975 1.939,10.172c7.226,23.752 31.902,54.737 31.902,54.737c0,0 24.673,-30.982 31.9,-54.734c1.143,-3.197 1.813,-6.617 1.939,-10.175c0.02,-0.412 0.031,-0.819 0.031,-1.221c0.001,-18.705 -15.164,-33.87 -33.87,-33.87zM50,50.459c-9.161,0 -16.589,-7.428 -16.589,-16.589c0,-9.16 7.428,-16.588 16.589,-16.588c9.162,0 16.589,7.428 16.589,16.588c0,9.161 -7.427,16.589 -16.589,16.589z" fill="#000000" class="fill c1"/></g></svg>